<?xml version="1.0" standalone="no"?><!DOCTYPE svg PUBLIC "-//W3C//DTD SVG 1.1//EN" "http://www.w3.org/Graphics/SVG/1.1/DTD/svg11.dtd"><svg class="icon" width="200px" height="200.00px" viewBox="0 0 1024 1024" version="1.1" xmlns="http://www.w3.org/2000/svg"><path d="M256 0m102.4 0l512 0q102.4 0 102.4 102.4l0 716.8q0 102.4-102.4 102.4l-512 0q-102.4 0-102.4-102.4l0-716.8q0-102.4 102.4-102.4Z" fill="#D5E9E8" /><path d="M358.4 0h512a102.4 102.4 0 0 1 102.4 102.4v716.8a102.4 102.4 0 0 1-102.4 102.4H358.4a102.4 102.4 0 0 1-102.4-102.4V102.4a102.4 102.4 0 0 1 102.4-102.4z m0 51.2a51.2 51.2 0 0 0-51.2 51.2v716.8a51.2 51.2 0 0 0 51.2 51.2h512a51.2 51.2 0 0 0 51.2-51.2V102.4a51.2 51.2 0 0 0-51.2-51.2H358.4z" fill="#303646" /><path d="M102.4 102.4m102.4 0l512 0q102.4 0 102.4 102.4l0 716.8q0 102.4-102.4 102.4l-512 0q-102.4 0-102.4-102.4l0-716.8q0-102.4 102.4-102.4Z" fill="#D5E9E8" /><path d="M204.8 102.4h512a102.4 102.4 0 0 1 102.4 102.4v716.8a102.4 102.4 0 0 1-102.4 102.4H204.8a102.4 102.4 0 0 1-102.4-102.4V204.8a102.4 102.4 0 0 1 102.4-102.4z m0 51.2a51.2 51.2 0 0 0-51.2 51.2v716.8a51.2 51.2 0 0 0 51.2 51.2h512a51.2 51.2 0 0 0 51.2-51.2V204.8a51.2 51.2 0 0 0-51.2-51.2H204.8z" fill="#303646" /><path d="M256 512h409.6v51.2H256v-51.2z m0 153.6h409.6v51.2H256v-51.2z m0 153.6h409.6v51.2H256v-51.2z" fill="#303646" /><path d="M409.6 102.4h256v307.2l-124.3648-102.4L409.6 409.6z" fill="#FFC83B" /><path d="M409.6 102.4h256v307.2l-124.3648-102.4L409.6 409.6V102.4z m51.2 51.2v153.6l80.3328-67.584L614.4 304.9472V153.6H460.8z" fill="#303646" /></svg>